<?xml version="1.0" encoding="utf-8"?>
<!-- Generator: Adobe Illustrator 12.0.0, SVG Export Plug-In . SVG Version: 6.00 Build 51448)  -->
<!DOCTYPE svg PUBLIC "-//W3C//DTD SVG 1.1//EN" "http://www.w3.org/Graphics/SVG/1.1/DTD/svg11.dtd" [
	<!ENTITY ns_svg "http://www.w3.org/2000/svg">
	<!ENTITY ns_xlink "http://www.w3.org/1999/xlink">
]>
<svg  version="1.1" id="Ebene_1" xmlns="&ns_svg;" xmlns:xlink="&ns_xlink;" width="133.598" height="132.155"
	 viewBox="0 0 133.598 132.155" overflow="visible" enable-background="new 0 0 133.598 132.155" xml:space="preserve">
<line fill="none" stroke="#000000" stroke-width="0.2126" stroke-linecap="round" stroke-linejoin="round" x1="73.859" y1="131.942" x2="73.859" y2="73.025"/>
<line fill="none" stroke="#000000" stroke-width="0.2126" stroke-linecap="round" stroke-linejoin="round" x1="73.859" y1="73.025" x2="0.212" y2="51.766"/>
<line fill="none" stroke="#000000" stroke-width="0.2126" stroke-linecap="round" stroke-linejoin="round" x1="133.385" y1="80.389" x2="133.385" y2="21.472"/>
<line fill="none" stroke="#000000" stroke-width="0.2126" stroke-linecap="round" stroke-linejoin="round" x1="133.385" y1="21.472" x2="73.859" y2="73.025"/>
<line fill="none" stroke="#000000" stroke-width="0.4252" stroke-linecap="round" stroke-linejoin="round" x1="59.739" y1="0.212" x2="133.385" y2="21.472"/>
<line fill="none" stroke="#000000" stroke-width="0.2126" stroke-linecap="round" stroke-linejoin="round" x1="101.648" y1="31.95" x2="57.46" y2="19.194"/>
<line fill="none" stroke="#000000" stroke-width="0.2126" stroke-linecap="round" stroke-linejoin="round" x1="76.137" y1="54.043" x2="101.648" y2="31.95"/>
<line fill="none" stroke="#000000" stroke-width="0.2126" stroke-linecap="round" stroke-linejoin="round" x1="31.949" y1="41.288" x2="76.137" y2="54.043"/>
<line fill="none" stroke="#000000" stroke-width="0.4252" stroke-linecap="round" stroke-linejoin="round" x1="0.212" y1="110.683" x2="0.212" y2="51.766"/>
<line fill="none" stroke="#000000" stroke-width="0.4252" stroke-linecap="round" stroke-linejoin="round" x1="0.212" y1="51.766" x2="59.739" y2="0.212"/>
<line fill="none" stroke="#000000" stroke-width="0.2126" stroke-linecap="round" stroke-linejoin="round" x1="57.46" y1="48.652" x2="57.46" y2="19.194"/>
<line fill="none" stroke="#000000" stroke-width="0.2126" stroke-linecap="round" stroke-linejoin="round" x1="57.46" y1="19.194" x2="31.949" y2="41.288"/>
<polygon fill="none" stroke="#000000" stroke-width="0.2126" stroke-linecap="round" stroke-linejoin="round" points="67.28,23.87 
	69.735,24.578 69.735,28.261 67.28,27.552 "/>
<polygon fill="none" stroke="#000000" stroke-width="0.2126" stroke-linecap="round" stroke-linejoin="round" points="67.28,31.234 
	69.735,31.943 69.735,35.625 67.28,34.917 "/>
<polygon fill="none" stroke="#000000" stroke-width="0.2126" stroke-linecap="round" stroke-linejoin="round" points="
	82.009,35.486 84.464,36.195 84.464,39.877 82.009,39.168 "/>
<polygon fill="none" stroke="#000000" stroke-width="0.2126" stroke-linecap="round" stroke-linejoin="round" points="
	85.692,36.549 88.146,37.258 88.146,40.94 85.692,40.231 "/>
<polyline fill="none" stroke="#000000" stroke-width="0.2126" stroke-linecap="round" stroke-linejoin="round" points="
	82.009,42.851 84.464,43.559 84.464,46.832 "/>
<polyline fill="none" stroke="#000000" stroke-width="0.2126" stroke-linecap="round" stroke-linejoin="round" points="
	84.11,47.139 82.009,46.533 82.009,42.851 "/>
<polyline fill="none" stroke="#000000" stroke-width="0.2126" stroke-linecap="round" stroke-linejoin="round" points="
	89.375,37.612 91.83,38.321 91.83,40.454 "/>
<polyline fill="none" stroke="#000000" stroke-width="0.2126" stroke-linecap="round" stroke-linejoin="round" points="
	90.488,41.616 89.375,41.294 89.375,37.612 "/>
<polygon fill="none" stroke="#000000" stroke-width="0.2126" stroke-linecap="round" stroke-linejoin="round" points="67.28,45.963 
	69.735,46.672 69.735,50.354 67.28,49.646 "/>
<polygon fill="none" stroke="#000000" stroke-width="0.2126" stroke-linecap="round" stroke-linejoin="round" points="
	70.962,24.933 73.417,25.641 73.417,29.324 70.962,28.615 "/>
<polygon fill="none" stroke="#000000" stroke-width="0.2126" stroke-linecap="round" stroke-linejoin="round" points="
	93.056,31.311 95.511,32.019 95.511,35.702 93.056,34.993 "/>
<polygon fill="none" stroke="#000000" stroke-width="0.2126" stroke-linecap="round" stroke-linejoin="round" points="63.598,44.9 
	66.053,45.609 66.053,49.292 63.598,48.583 "/>
<polygon fill="none" stroke="#000000" stroke-width="0.2126" stroke-linecap="round" stroke-linejoin="round" points="74.645,33.36 
	77.099,34.069 77.099,37.751 74.645,37.042 "/>
<line fill="none" stroke="#000000" stroke-width="0.2126" stroke-linecap="round" stroke-linejoin="round" x1="93.056" y1="38.675" x2="93.676" y2="38.854"/>
<line fill="none" stroke="#000000" stroke-width="0.2126" stroke-linecap="round" stroke-linejoin="round" x1="93.056" y1="39.391" x2="93.056" y2="38.675"/>
<polygon fill="none" stroke="#000000" stroke-width="0.2126" stroke-linecap="round" stroke-linejoin="round" points="
	70.962,32.297 73.417,33.006 73.417,36.688 70.962,35.979 "/>
<polyline fill="none" stroke="#000000" stroke-width="0.4252" stroke-linecap="round" stroke-linejoin="round" points="
	133.385,80.389 73.859,131.942 0.212,110.683 "/>
<polygon fill="none" stroke="#000000" stroke-width="0.2126" stroke-linecap="round" stroke-linejoin="round" points="
	53.917,24.104 52.5,25.331 52.5,29.013 53.917,27.786 "/>
<polygon fill="none" stroke="#000000" stroke-width="0.2126" stroke-linecap="round" stroke-linejoin="round" points="43.288,33.31 
	41.871,34.537 41.871,38.219 43.288,36.992 "/>
<polygon fill="none" stroke="#000000" stroke-width="0.2126" stroke-linecap="round" stroke-linejoin="round" points="
	45.414,31.468 43.996,32.696 43.996,36.378 45.414,35.151 "/>
<polygon fill="none" stroke="#000000" stroke-width="0.2126" stroke-linecap="round" stroke-linejoin="round" points="47.54,29.627 
	46.122,30.854 46.122,34.537 47.54,33.31 "/>
<line fill="none" stroke="#000000" stroke-width="0.2126" stroke-linecap="round" stroke-linejoin="round" x1="34.784" y1="40.674" x2="33.544" y2="41.749"/>
<line fill="none" stroke="#000000" stroke-width="0.2126" stroke-linecap="round" stroke-linejoin="round" x1="34.784" y1="42.106" x2="34.784" y2="40.674"/>
<polygon fill="none" stroke="#000000" stroke-width="0.2126" stroke-linecap="round" stroke-linejoin="round" points="
	45.414,38.833 43.996,40.06 43.996,43.743 45.414,42.515 "/>
<polygon fill="none" stroke="#000000" stroke-width="0.2126" stroke-linecap="round" stroke-linejoin="round" points="
	39.036,36.992 37.619,38.219 37.619,41.902 39.036,40.674 "/>
<polygon fill="none" stroke="#000000" stroke-width="0.2126" stroke-linecap="round" stroke-linejoin="round" points="
	56.043,29.627 54.626,30.854 54.626,34.537 56.043,33.309 "/>
<polygon fill="none" stroke="#000000" stroke-width="0.2126" stroke-linecap="round" stroke-linejoin="round" points="
	56.043,22.262 54.626,23.49 54.626,27.172 56.043,25.945 "/>
<polygon fill="none" stroke="#000000" stroke-width="0.2126" stroke-linecap="round" stroke-linejoin="round" points="
	53.917,31.468 52.5,32.696 52.5,36.378 53.917,35.151 "/>
<polygon fill="none" stroke="#000000" stroke-width="0.2126" stroke-linecap="round" stroke-linejoin="round" points="
	41.162,35.151 39.745,36.378 39.745,40.061 41.162,38.833 "/>
<polygon fill="none" stroke="#000000" stroke-width="0.2126" stroke-linecap="round" stroke-linejoin="round" points="
	51.792,25.945 50.374,27.172 50.374,30.854 51.792,29.627 "/>
<polygon fill="none" stroke="#000000" stroke-width="0.2126" stroke-linecap="round" stroke-linejoin="round" points="
	51.792,33.309 50.374,34.537 50.374,38.219 51.792,36.992 "/>
<polyline fill="none" stroke="#000000" stroke-width="0.2126" stroke-linecap="round" stroke-linejoin="round" points="
	43.288,40.674 41.871,41.902 41.871,44.152 "/>
<polyline fill="none" stroke="#000000" stroke-width="0.2126" stroke-linecap="round" stroke-linejoin="round" points="43.11,44.51 
	43.288,44.356 43.288,40.674 "/>
<line fill="none" stroke="#000000" stroke-width="0.2126" stroke-linecap="round" stroke-linejoin="round" x1="41.162" y1="42.515" x2="39.921" y2="43.589"/>
<line fill="none" stroke="#000000" stroke-width="0.2126" stroke-linecap="round" stroke-linejoin="round" x1="41.162" y1="43.947" x2="41.162" y2="42.515"/>
<polygon fill="none" stroke="#000000" stroke-width="0.2126" stroke-linecap="round" stroke-linejoin="round" points="
	49.666,27.786 48.248,29.013 48.248,32.696 49.666,31.468 "/>
<polyline fill="none" stroke="#000000" stroke-width="0.2126" stroke-linecap="round" stroke-linejoin="round" points="
	36.91,38.833 35.493,40.061 35.493,42.311 "/>
<polyline fill="none" stroke="#000000" stroke-width="0.2126" stroke-linecap="round" stroke-linejoin="round" points="
	36.733,42.668 36.91,42.515 36.91,38.833 "/>
<line fill="none" stroke="#000000" stroke-width="0.2126" stroke-linecap="round" stroke-linejoin="round" x1="53.917" y1="46.198" x2="52.677" y2="47.271"/>
<line fill="none" stroke="#000000" stroke-width="0.2126" stroke-linecap="round" stroke-linejoin="round" x1="53.917" y1="47.629" x2="53.917" y2="46.198"/>
<polygon fill="none" stroke="#000000" stroke-width="0.2126" stroke-linecap="round" stroke-linejoin="round" points="47.54,36.992 
	46.122,38.219 46.122,41.902 47.54,40.674 "/>
<polygon fill="none" stroke="#000000" stroke-width="0.2126" stroke-linecap="round" stroke-linejoin="round" points="
	49.666,35.151 48.248,36.378 48.248,40.06 49.666,38.833 "/>
<polygon fill="none" stroke="#000000" stroke-width="0.2126" stroke-linecap="round" stroke-linejoin="round" points="
	59.916,43.837 62.37,44.546 62.37,48.229 59.916,47.52 "/>
<polygon fill="none" stroke="#000000" stroke-width="0.2126" stroke-linecap="round" stroke-linejoin="round" points="
	59.916,36.473 62.37,37.181 62.37,40.864 59.916,40.155 "/>
<polygon fill="none" stroke="#000000" stroke-width="0.2126" stroke-linecap="round" stroke-linejoin="round" points="67.28,38.599 
	69.735,39.308 69.735,42.99 67.28,42.281 "/>
<polygon fill="none" stroke="#000000" stroke-width="0.2126" stroke-linecap="round" stroke-linejoin="round" points="
	74.645,40.725 77.099,41.433 77.099,45.116 74.645,44.407 "/>
<polygon fill="none" stroke="#000000" stroke-width="0.2126" stroke-linecap="round" stroke-linejoin="round" points="
	78.328,41.788 80.782,42.497 80.782,46.179 78.328,45.47 "/>
<line fill="none" stroke="#000000" stroke-width="0.2126" stroke-linecap="round" stroke-linejoin="round" x1="85.692" y1="43.914" x2="87.298" y2="44.377"/>
<line fill="none" stroke="#000000" stroke-width="0.2126" stroke-linecap="round" stroke-linejoin="round" x1="85.692" y1="45.769" x2="85.692" y2="43.914"/>
<polygon fill="none" stroke="#000000" stroke-width="0.2126" stroke-linecap="round" stroke-linejoin="round" points="
	70.962,39.662 73.417,40.371 73.417,44.053 70.962,43.344 "/>
<polygon fill="none" stroke="#000000" stroke-width="0.2126" stroke-linecap="round" stroke-linejoin="round" points="
	63.598,37.536 66.053,38.245 66.053,41.927 63.598,41.218 "/>
<polygon fill="none" stroke="#000000" stroke-width="0.2126" stroke-linecap="round" stroke-linejoin="round" points="
	63.598,22.807 66.053,23.515 66.053,27.198 63.598,26.489 "/>
<polygon fill="none" stroke="#000000" stroke-width="0.2126" stroke-linecap="round" stroke-linejoin="round" points="
	82.009,28.122 84.464,28.83 84.464,32.512 82.009,31.804 "/>
<polygon fill="none" stroke="#000000" stroke-width="0.2126" stroke-linecap="round" stroke-linejoin="round" points="
	78.328,27.059 80.782,27.767 80.782,31.45 78.328,30.741 "/>
<polygon fill="none" stroke="#000000" stroke-width="0.2126" stroke-linecap="round" stroke-linejoin="round" points="
	74.645,25.996 77.099,26.704 77.099,30.386 74.645,29.678 "/>
<polyline fill="none" stroke="#000000" stroke-width="0.2126" stroke-linecap="round" stroke-linejoin="round" points="
	96.739,32.374 99.194,33.082 99.194,34.076 "/>
<polyline fill="none" stroke="#000000" stroke-width="0.2126" stroke-linecap="round" stroke-linejoin="round" points="
	96.865,36.092 96.739,36.056 96.739,32.374 "/>
<polygon fill="none" stroke="#000000" stroke-width="0.2126" stroke-linecap="round" stroke-linejoin="round" points="
	78.328,34.423 80.782,35.132 80.782,38.814 78.328,38.105 "/>
<polygon fill="none" stroke="#000000" stroke-width="0.2126" stroke-linecap="round" stroke-linejoin="round" points="
	89.375,30.248 91.83,30.956 91.83,34.638 89.375,33.93 "/>
<polygon fill="none" stroke="#000000" stroke-width="0.2126" stroke-linecap="round" stroke-linejoin="round" points="
	59.916,29.108 62.37,29.817 62.37,33.5 59.916,32.791 "/>
<polygon fill="none" stroke="#000000" stroke-width="0.2126" stroke-linecap="round" stroke-linejoin="round" points="
	59.916,21.744 62.37,22.452 62.37,26.134 59.916,25.426 "/>
<polygon fill="none" stroke="#000000" stroke-width="0.2126" stroke-linecap="round" stroke-linejoin="round" points="
	70.962,47.026 73.417,47.735 73.417,51.417 70.962,50.708 "/>
<polygon fill="none" stroke="#000000" stroke-width="0.2126" stroke-linecap="round" stroke-linejoin="round" points="
	63.598,30.171 66.053,30.88 66.053,34.562 63.598,33.854 "/>
<polyline fill="none" stroke="#000000" stroke-width="0.2126" stroke-linecap="round" stroke-linejoin="round" points="
	78.328,49.152 80.782,49.861 80.782,50.021 "/>
<line fill="none" stroke="#000000" stroke-width="0.2126" stroke-linecap="round" stroke-linejoin="round" x1="78.328" y1="52.147" x2="78.328" y2="49.152"/>
<polygon fill="none" stroke="#000000" stroke-width="0.2126" stroke-linecap="round" stroke-linejoin="round" points="
	74.645,48.089 77.099,48.798 77.099,52.48 74.645,51.772 "/>
<polygon fill="none" stroke="#000000" stroke-width="0.2126" stroke-linecap="round" stroke-linejoin="round" points="
	85.692,29.185 88.146,29.893 88.146,33.576 85.692,32.867 "/>
<polyline fill="none" stroke="#000000" stroke-width="0.2126" stroke-linecap="round" stroke-linejoin="round" points="
	56.043,44.356 54.626,45.583 54.626,47.834 "/>
<polyline fill="none" stroke="#000000" stroke-width="0.2126" stroke-linecap="round" stroke-linejoin="round" points="
	55.866,48.192 56.043,48.039 56.043,44.356 "/>
<polygon fill="none" stroke="#000000" stroke-width="0.2126" stroke-linecap="round" stroke-linejoin="round" points="
	56.043,36.992 54.626,38.219 54.626,41.901 56.043,40.674 "/>
<polygon fill="none" stroke="#000000" stroke-width="0.2126" stroke-linecap="round" stroke-linejoin="round" points="
	51.792,40.674 50.374,41.901 50.374,45.583 51.792,44.356 "/>
<line fill="none" stroke="#000000" stroke-width="0.2126" stroke-linecap="round" stroke-linejoin="round" x1="47.54" y1="44.356" x2="46.299" y2="45.43"/>
<line fill="none" stroke="#000000" stroke-width="0.2126" stroke-linecap="round" stroke-linejoin="round" x1="47.54" y1="45.789" x2="47.54" y2="44.356"/>
<polyline fill="none" stroke="#000000" stroke-width="0.2126" stroke-linecap="round" stroke-linejoin="round" points="
	49.666,42.515 48.248,43.743 48.248,45.993 "/>
<polyline fill="none" stroke="#000000" stroke-width="0.2126" stroke-linecap="round" stroke-linejoin="round" points="
	49.488,46.351 49.666,46.198 49.666,42.515 "/>
<polygon fill="none" stroke="#000000" stroke-width="0.2126" stroke-linecap="round" stroke-linejoin="round" points="
	53.917,38.833 52.5,40.06 52.5,43.743 53.917,42.515 "/>
</svg>
