<?xml version="1.0" encoding="utf-8"?>
<!-- Generator: Adobe Illustrator 12.0.0, SVG Export Plug-In . SVG Version: 6.00 Build 51448)  -->
<!DOCTYPE svg PUBLIC "-//W3C//DTD SVG 1.1//EN" "http://www.w3.org/Graphics/SVG/1.1/DTD/svg11.dtd" [
	<!ENTITY ns_svg "http://www.w3.org/2000/svg">
	<!ENTITY ns_xlink "http://www.w3.org/1999/xlink">
]>
<svg  version="1.1" xmlns="&ns_svg;" xmlns:xlink="&ns_xlink;" width="38.387" height="38.387" viewBox="0 0 38.387 38.387"
	 overflow="visible" enable-background="new 0 0 38.387 38.387" xml:space="preserve">
<g id="Ebene_2">
	<polygon fill="#FFFFFF" points="0.293,29.694 0.212,7.578 8.716,0.212 30.81,6.59 30.81,13.955 38.174,16.081 38.174,30.809 
		29.67,38.174 	"/>
</g>
<g id="Ebene_1">
	<polygon fill="none" stroke="#000000" stroke-width="0.2126" stroke-linecap="round" stroke-linejoin="round" points="
		35.34,20.375 33.922,21.604 33.922,25.288 35.34,24.059 	"/>
	
		<line fill="none" stroke="#000000" stroke-width="0.2126" stroke-linecap="round" stroke-linejoin="round" x1="29.67" y1="38.174" x2="29.67" y2="16.081"/>
	
		<line fill="none" stroke="#000000" stroke-width="0.2126" stroke-linecap="round" stroke-linejoin="round" x1="29.67" y1="16.081" x2="0.212" y2="7.578"/>
	
		<line fill="none" stroke="#000000" stroke-width="0.4252" stroke-linecap="round" stroke-linejoin="round" x1="0.212" y1="29.67" x2="0.212" y2="7.578"/>
	
		<line fill="none" stroke="#000000" stroke-width="0.2126" stroke-linecap="round" stroke-linejoin="round" x1="23.015" y1="13.341" x2="30.379" y2="15.467"/>
	
		<line fill="none" stroke="#000000" stroke-width="0.2126" stroke-linecap="round" stroke-linejoin="round" x1="30.379" y1="22.833" x2="30.379" y2="15.467"/>
	
		<line fill="none" stroke="#000000" stroke-width="0.2126" stroke-linecap="round" stroke-linejoin="round" x1="30.379" y1="22.833" x2="38.174" y2="16.081"/>
	
		<line fill="none" stroke="#000000" stroke-width="0.4252" stroke-linecap="round" stroke-linejoin="round" x1="38.174" y1="16.081" x2="30.81" y2="13.955"/>
	
		<line fill="none" stroke="#000000" stroke-width="0.4252" stroke-linecap="round" stroke-linejoin="round" x1="30.81" y1="13.955" x2="30.81" y2="6.59"/>
	
		<line fill="none" stroke="#000000" stroke-width="0.2126" stroke-linecap="round" stroke-linejoin="round" x1="30.81" y1="6.59" x2="23.015" y2="13.341"/>
	
		<line fill="none" stroke="#000000" stroke-width="0.4252" stroke-linecap="round" stroke-linejoin="round" x1="0.212" y1="7.578" x2="8.716" y2="0.212"/>
	
		<line fill="none" stroke="#000000" stroke-width="0.4252" stroke-linecap="round" stroke-linejoin="round" x1="8.716" y1="0.212" x2="30.81" y2="6.59"/>
	
		<line fill="none" stroke="#000000" stroke-width="0.2126" stroke-linecap="round" stroke-linejoin="round" x1="30.379" y1="15.467" x2="29.67" y2="16.081"/>
	
		<line fill="none" stroke="#000000" stroke-width="0.4252" stroke-linecap="round" stroke-linejoin="round" x1="38.174" y1="30.809" x2="38.174" y2="16.081"/>
	
		<line fill="none" stroke="#000000" stroke-width="0.2126" stroke-linecap="round" stroke-linejoin="round" x1="30.81" y1="13.955" x2="29.393" y2="15.183"/>
	
		<line fill="none" stroke="#000000" stroke-width="0.4252" stroke-linecap="round" stroke-linejoin="round" x1="30.379" y1="37.561" x2="38.174" y2="30.809"/>
	<polyline fill="none" stroke="#000000" stroke-width="0.4252" stroke-linecap="round" stroke-linejoin="round" points="
		30.379,37.561 29.67,38.174 0.212,29.67 	"/>
	<polygon fill="none" stroke="#000000" stroke-width="0.2126" stroke-linecap="round" stroke-linejoin="round" points="
		37.466,18.536 36.049,19.762 36.049,23.446 37.466,22.217 	"/>
	<polygon fill="none" stroke="#000000" stroke-width="0.2126" stroke-linecap="round" stroke-linejoin="round" points="
		30.102,9.045 28.684,10.273 28.684,13.955 30.102,12.728 	"/>
	<polyline fill="none" stroke="#000000" stroke-width="0.2126" stroke-linecap="round" stroke-linejoin="round" points="
		27.975,10.886 26.558,12.114 26.558,14.364 	"/>
	<polyline fill="none" stroke="#000000" stroke-width="0.2126" stroke-linecap="round" stroke-linejoin="round" points="
		27.798,14.722 27.975,14.569 27.975,10.886 	"/>
	<polygon fill="none" stroke="#000000" stroke-width="0.2126" stroke-linecap="round" stroke-linejoin="round" points="
		37.466,25.901 36.049,27.127 36.049,30.809 37.466,29.583 	"/>
	<polygon fill="none" stroke="#000000" stroke-width="0.2126" stroke-linecap="round" stroke-linejoin="round" points="
		33.214,22.217 31.797,23.446 31.797,27.127 33.214,25.901 	"/>
	<polygon fill="none" stroke="#000000" stroke-width="0.2126" stroke-linecap="round" stroke-linejoin="round" points="
		35.34,27.743 33.922,28.969 33.922,32.653 35.34,31.422 	"/>
	<polygon fill="none" stroke="#000000" stroke-width="0.2126" stroke-linecap="round" stroke-linejoin="round" points="
		33.214,29.583 31.797,30.809 31.797,34.493 33.214,33.264 	"/>
</g>
</svg>
