<?xml version="1.0" encoding="utf-8"?>
<!-- Generator: Adobe Illustrator 12.0.0, SVG Export Plug-In . SVG Version: 6.00 Build 51448)  -->
<!DOCTYPE svg PUBLIC "-//W3C//DTD SVG 1.1//EN" "http://www.w3.org/Graphics/SVG/1.1/DTD/svg11.dtd" [
	<!ENTITY ns_svg "http://www.w3.org/2000/svg">
	<!ENTITY ns_xlink "http://www.w3.org/1999/xlink">
]>
<svg  version="1.1" id="Ebene_1" xmlns="&ns_svg;" xmlns:xlink="&ns_xlink;" width="38.387" height="97.198"
	 viewBox="0 0 38.387 97.198" overflow="visible" enable-background="new 0 0 38.387 97.198" xml:space="preserve">
<polygon fill="none" stroke="#000000" stroke-width="0.2126" stroke-linecap="round" stroke-linejoin="round" points="
	32.505,15.467 31.088,16.695 31.088,20.377 32.505,19.149 "/>
<polygon fill="none" stroke="#000000" stroke-width="0.2126" stroke-linecap="round" stroke-linejoin="round" points="
	34.631,72.543 33.213,73.771 33.213,77.453 34.631,76.226 "/>
<polygon fill="none" stroke="#000000" stroke-width="0.2126" stroke-linecap="round" stroke-linejoin="round" points="
	36.757,48.607 35.34,49.836 35.34,53.518 36.757,52.29 "/>
<polygon fill="none" stroke="#000000" stroke-width="0.2126" stroke-linecap="round" stroke-linejoin="round" points="32.505,52.29 
	31.088,53.518 31.088,57.2 32.505,55.973 "/>
<polygon fill="none" stroke="#000000" stroke-width="0.2126" stroke-linecap="round" stroke-linejoin="round" points="36.049,78.68 
	34.631,79.908 34.631,83.59 36.049,82.362 "/>
<polygon fill="none" stroke="#000000" stroke-width="0.2126" stroke-linecap="round" stroke-linejoin="round" points="
	33.922,87.886 32.505,89.113 32.505,92.796 33.922,91.568 "/>
<polygon fill="none" stroke="#000000" stroke-width="0.2126" stroke-linecap="round" stroke-linejoin="round" points="
	34.631,43.084 33.213,44.312 33.213,47.994 34.631,46.767 "/>
<polygon fill="none" stroke="#000000" stroke-width="0.2126" stroke-linecap="round" stroke-linejoin="round" points="
	34.631,50.449 33.213,51.677 33.213,55.359 34.631,54.132 "/>
<polygon fill="none" stroke="#000000" stroke-width="0.2126" stroke-linecap="round" stroke-linejoin="round" points="
	36.757,41.243 35.34,42.471 35.34,46.153 36.757,44.926 "/>
<polygon fill="none" stroke="#000000" stroke-width="0.2126" stroke-linecap="round" stroke-linejoin="round" points="
	34.631,57.814 33.213,59.041 33.213,62.724 34.631,61.496 "/>
<polygon fill="none" stroke="#000000" stroke-width="0.2126" stroke-linecap="round" stroke-linejoin="round" points="
	34.631,28.355 33.213,29.583 33.213,33.265 34.631,32.038 "/>
<polygon fill="none" stroke="#000000" stroke-width="0.2126" stroke-linecap="round" stroke-linejoin="round" points="
	36.757,55.973 35.34,57.2 35.34,60.883 36.757,59.654 "/>
<polygon fill="none" stroke="#000000" stroke-width="0.2126" stroke-linecap="round" stroke-linejoin="round" points="
	32.505,59.655 31.088,60.883 31.088,64.564 32.505,63.338 "/>
<polygon fill="none" stroke="#000000" stroke-width="0.2126" stroke-linecap="round" stroke-linejoin="round" points="
	32.505,30.196 31.088,31.424 31.088,35.106 32.505,33.879 "/>
<polygon fill="none" stroke="#000000" stroke-width="0.2126" stroke-linecap="round" stroke-linejoin="round" points="
	36.757,26.514 35.34,27.742 35.34,31.424 36.757,30.196 "/>
<polygon fill="none" stroke="#000000" stroke-width="0.2126" stroke-linecap="round" stroke-linejoin="round" points="
	36.757,33.879 35.34,35.106 35.34,38.789 36.757,37.561 "/>
<polygon fill="none" stroke="#000000" stroke-width="0.2126" stroke-linecap="round" stroke-linejoin="round" points="
	31.797,89.727 30.379,90.955 30.379,94.637 31.797,93.409 "/>
<polygon fill="none" stroke="#000000" stroke-width="0.2126" stroke-linecap="round" stroke-linejoin="round" points="
	31.797,82.362 30.379,83.59 30.379,87.272 31.797,86.045 "/>
<polygon fill="none" stroke="#000000" stroke-width="0.2126" stroke-linecap="round" stroke-linejoin="round" points="
	33.922,80.521 32.505,81.749 32.505,85.432 33.922,84.203 "/>
<polygon fill="none" stroke="#000000" stroke-width="0.2126" stroke-linecap="round" stroke-linejoin="round" points="
	36.757,63.338 35.34,64.564 35.34,68.247 36.757,67.02 "/>
<polygon fill="none" stroke="#000000" stroke-width="0.2126" stroke-linecap="round" stroke-linejoin="round" points="32.505,67.02 
	31.088,68.247 31.088,71.93 32.505,70.702 "/>
<polygon fill="none" stroke="#000000" stroke-width="0.2126" stroke-linecap="round" stroke-linejoin="round" points="
	32.505,37.561 31.088,38.789 31.088,42.471 32.505,41.243 "/>
<polygon fill="none" stroke="#000000" stroke-width="0.2126" stroke-linecap="round" stroke-linejoin="round" points="34.631,35.72 
	33.213,36.947 33.213,40.63 34.631,39.402 "/>
<polygon fill="none" stroke="#000000" stroke-width="0.2126" stroke-linecap="round" stroke-linejoin="round" points="
	32.505,44.926 31.088,46.153 31.088,49.836 32.505,48.607 "/>
<polygon fill="none" stroke="#000000" stroke-width="0.2126" stroke-linecap="round" stroke-linejoin="round" points="
	34.631,13.626 33.213,14.854 33.213,18.536 34.631,17.309 "/>
<polygon fill="none" stroke="#000000" stroke-width="0.2126" stroke-linecap="round" stroke-linejoin="round" points="
	36.049,86.045 34.631,87.272 34.631,90.955 36.049,89.727 "/>
<polygon fill="none" stroke="#000000" stroke-width="0.2126" stroke-linecap="round" stroke-linejoin="round" points="
	32.505,74.385 31.088,75.611 31.088,79.294 32.505,78.066 "/>
<polygon fill="none" stroke="#000000" stroke-width="0.2126" stroke-linecap="round" stroke-linejoin="round" points="
	36.757,70.701 35.34,71.93 35.34,75.611 36.757,74.385 "/>
<polygon fill="none" stroke="#000000" stroke-width="0.2126" stroke-linecap="round" stroke-linejoin="round" points="
	34.631,20.991 33.213,22.218 33.213,25.9 34.631,24.673 "/>
<polygon fill="none" stroke="#000000" stroke-width="0.2126" stroke-linecap="round" stroke-linejoin="round" points="
	32.505,22.832 31.088,24.06 31.088,27.742 32.505,26.514 "/>
<polygon fill="none" stroke="#000000" stroke-width="0.2126" stroke-linecap="round" stroke-linejoin="round" points="
	36.757,19.149 35.34,20.377 35.34,24.06 36.757,22.832 "/>
<polygon fill="none" stroke="#000000" stroke-width="0.2126" stroke-linecap="round" stroke-linejoin="round" points="
	34.631,65.179 33.213,66.406 33.213,70.088 34.631,68.861 "/>
<polygon fill="none" stroke="#000000" stroke-width="0.2126" stroke-linecap="round" stroke-linejoin="round" points="
	36.757,11.785 35.34,13.013 35.34,16.695 36.757,15.467 "/>
<line fill="none" stroke="#000000" stroke-width="0.4252" stroke-linecap="round" stroke-linejoin="round" x1="38.174" y1="89.727" x2="38.174" y2="8.716"/>
<line fill="none" stroke="#000000" stroke-width="0.4252" stroke-linecap="round" stroke-linejoin="round" x1="38.174" y1="8.716" x2="8.716" y2="0.212"/>
<line fill="none" stroke="#000000" stroke-width="0.2126" stroke-linecap="round" stroke-linejoin="round" x1="29.67" y1="97.092" x2="29.67" y2="16.081"/>
<line fill="none" stroke="#000000" stroke-width="0.2126" stroke-linecap="round" stroke-linejoin="round" x1="29.67" y1="16.081" x2="38.174" y2="8.716"/>
<line fill="none" stroke="#000000" stroke-width="0.4252" stroke-linecap="round" stroke-linejoin="round" x1="0.212" y1="88.588" x2="0.212" y2="7.577"/>
<line fill="none" stroke="#000000" stroke-width="0.2126" stroke-linecap="round" stroke-linejoin="round" x1="0.212" y1="7.577" x2="29.67" y2="16.081"/>
<line fill="none" stroke="#000000" stroke-width="0.4252" stroke-linecap="round" stroke-linejoin="round" x1="8.716" y1="0.212" x2="0.212" y2="7.577"/>
<polyline fill="none" stroke="#000000" stroke-width="0.2126" stroke-linecap="round" stroke-linejoin="round" points="
	0.212,88.588 29.67,97.092 38.174,89.727 "/>
</svg>
